<mxfile host="Electron" agent="Mozilla/5.0 (Windows NT 10.0; Win64; x64) AppleWebKit/537.36 (KHTML, like Gecko) draw.io/24.7.8 Chrome/128.0.6613.36 Electron/32.0.1 Safari/537.36" version="24.7.8">
  <diagram name="Pagina-1" id="DkjdMGbvdnh06ZyJEZMB">
    <mxGraphModel dx="1434" dy="836" grid="1" gridSize="10" guides="1" tooltips="1" connect="1" arrows="1" fold="1" page="1" pageScale="1" pageWidth="827" pageHeight="1169" math="0" shadow="0">
      <root>
        <mxCell id="0" />
        <mxCell id="1" parent="0" />
        <mxCell id="ShmfW8HLHr1TqPuR5eqe-1" value="&lt;b&gt;&lt;font style=&quot;font-size: 14px;&quot;&gt;AREA CORE+EDGE&lt;/font&gt;&lt;/b&gt;" style="rounded=1;whiteSpace=wrap;html=1;labelPosition=center;verticalLabelPosition=top;align=center;verticalAlign=bottom;fillColor=#cdeb8b;strokeColor=#36393d;" vertex="1" parent="1">
          <mxGeometry x="30" y="80" width="560" height="440" as="geometry" />
        </mxCell>
        <mxCell id="ShmfW8HLHr1TqPuR5eqe-2" value="&lt;b&gt;K8S Cluster - VM 100&lt;/b&gt;" style="rounded=1;whiteSpace=wrap;html=1;align=left;verticalAlign=top;spacingLeft=12;fillColor=#bac8d3;strokeColor=#23445d;" vertex="1" parent="1">
          <mxGeometry x="65" y="110" width="490" height="170" as="geometry" />
        </mxCell>
        <mxCell id="ShmfW8HLHr1TqPuR5eqe-3" value="Dedicated Namespace" style="rounded=1;whiteSpace=wrap;html=1;fillColor=#fad7ac;dashed=1;fillStyle=auto;shadow=0;glass=0;strokeColor=#b46504;horizontal=1;verticalAlign=bottom;align=center;labelPosition=center;verticalLabelPosition=top;" vertex="1" parent="1">
          <mxGeometry x="75" y="140" width="460" height="120" as="geometry" />
        </mxCell>
        <mxCell id="ShmfW8HLHr1TqPuR5eqe-4" value="" style="edgeStyle=orthogonalEdgeStyle;rounded=0;orthogonalLoop=1;jettySize=auto;html=1;endArrow=none;endFill=0;strokeWidth=2;fontStyle=1" edge="1" parent="1" source="ShmfW8HLHr1TqPuR5eqe-5" target="ShmfW8HLHr1TqPuR5eqe-12">
          <mxGeometry relative="1" as="geometry" />
        </mxCell>
        <mxCell id="ShmfW8HLHr1TqPuR5eqe-5" value="NEF" style="rounded=1;whiteSpace=wrap;html=1;fontStyle=1;fillColor=#1ba1e2;fontColor=#ffffff;strokeColor=#006EAF;" vertex="1" parent="1">
          <mxGeometry x="85" y="145" width="70" height="30" as="geometry" />
        </mxCell>
        <mxCell id="ShmfW8HLHr1TqPuR5eqe-6" value="" style="edgeStyle=orthogonalEdgeStyle;rounded=0;orthogonalLoop=1;jettySize=auto;html=1;endArrow=none;endFill=0;strokeWidth=2;fontStyle=1" edge="1" parent="1" source="ShmfW8HLHr1TqPuR5eqe-7" target="ShmfW8HLHr1TqPuR5eqe-13">
          <mxGeometry relative="1" as="geometry" />
        </mxCell>
        <mxCell id="ShmfW8HLHr1TqPuR5eqe-7" value="AF" style="rounded=1;whiteSpace=wrap;html=1;fontStyle=1;fillColor=#1ba1e2;fontColor=#ffffff;strokeColor=#006EAF;" vertex="1" parent="1">
          <mxGeometry x="165" y="145" width="70" height="30" as="geometry" />
        </mxCell>
        <mxCell id="ShmfW8HLHr1TqPuR5eqe-8" style="edgeStyle=orthogonalEdgeStyle;rounded=0;orthogonalLoop=1;jettySize=auto;html=1;exitX=0.5;exitY=1;exitDx=0;exitDy=0;endArrow=none;endFill=0;strokeWidth=2;fontStyle=1" edge="1" parent="1" source="ShmfW8HLHr1TqPuR5eqe-9">
          <mxGeometry relative="1" as="geometry">
            <mxPoint x="299.8275862068965" y="195" as="targetPoint" />
          </mxGeometry>
        </mxCell>
        <mxCell id="ShmfW8HLHr1TqPuR5eqe-9" value="..." style="rounded=1;whiteSpace=wrap;html=1;fontStyle=1;fillColor=#1ba1e2;fontColor=#ffffff;strokeColor=#006EAF;" vertex="1" parent="1">
          <mxGeometry x="265" y="145" width="70" height="30" as="geometry" />
        </mxCell>
        <mxCell id="ShmfW8HLHr1TqPuR5eqe-10" value="PCF" style="rounded=1;whiteSpace=wrap;html=1;fontStyle=1;fillColor=#1ba1e2;fontColor=#ffffff;strokeColor=#006EAF;" vertex="1" parent="1">
          <mxGeometry x="365" y="145" width="70" height="30" as="geometry" />
        </mxCell>
        <mxCell id="ShmfW8HLHr1TqPuR5eqe-11" value="UDR" style="rounded=1;whiteSpace=wrap;html=1;fontStyle=1;fillColor=#1ba1e2;fontColor=#ffffff;strokeColor=#006EAF;" vertex="1" parent="1">
          <mxGeometry x="455" y="145" width="70" height="30" as="geometry" />
        </mxCell>
        <mxCell id="ShmfW8HLHr1TqPuR5eqe-12" value="NWDAF" style="rounded=1;whiteSpace=wrap;html=1;fontStyle=1;fillColor=#1ba1e2;fontColor=#ffffff;strokeColor=#006EAF;" vertex="1" parent="1">
          <mxGeometry x="85" y="215" width="70" height="30" as="geometry" />
        </mxCell>
        <mxCell id="ShmfW8HLHr1TqPuR5eqe-13" value="AMF" style="rounded=1;whiteSpace=wrap;html=1;fontStyle=1;fillColor=#1ba1e2;fontColor=#ffffff;strokeColor=#006EAF;" vertex="1" parent="1">
          <mxGeometry x="165" y="215" width="70" height="30" as="geometry" />
        </mxCell>
        <mxCell id="ShmfW8HLHr1TqPuR5eqe-14" value="" style="edgeStyle=orthogonalEdgeStyle;rounded=0;orthogonalLoop=1;jettySize=auto;html=1;endArrow=none;endFill=0;strokeWidth=2;fontStyle=1" edge="1" parent="1" source="ShmfW8HLHr1TqPuR5eqe-15" target="ShmfW8HLHr1TqPuR5eqe-10">
          <mxGeometry relative="1" as="geometry" />
        </mxCell>
        <mxCell id="ShmfW8HLHr1TqPuR5eqe-15" value="SMF" style="rounded=1;whiteSpace=wrap;html=1;fontStyle=1;fillColor=#1ba1e2;fontColor=#ffffff;strokeColor=#006EAF;" vertex="1" parent="1">
          <mxGeometry x="365" y="215" width="70" height="30" as="geometry" />
        </mxCell>
        <mxCell id="ShmfW8HLHr1TqPuR5eqe-16" value="" style="edgeStyle=orthogonalEdgeStyle;rounded=0;orthogonalLoop=1;jettySize=auto;html=1;endArrow=none;endFill=0;strokeWidth=2;fontStyle=1" edge="1" parent="1" source="ShmfW8HLHr1TqPuR5eqe-17" target="ShmfW8HLHr1TqPuR5eqe-11">
          <mxGeometry relative="1" as="geometry" />
        </mxCell>
        <mxCell id="ShmfW8HLHr1TqPuR5eqe-17" value="..." style="rounded=1;whiteSpace=wrap;html=1;fontStyle=1;fillColor=#1ba1e2;fontColor=#ffffff;strokeColor=#006EAF;" vertex="1" parent="1">
          <mxGeometry x="455" y="215" width="70" height="30" as="geometry" />
        </mxCell>
        <mxCell id="ShmfW8HLHr1TqPuR5eqe-18" value="" style="endArrow=none;html=1;rounded=0;strokeWidth=2;fontStyle=1" edge="1" parent="1">
          <mxGeometry width="50" height="50" relative="1" as="geometry">
            <mxPoint x="95" y="195" as="sourcePoint" />
            <mxPoint x="515" y="195" as="targetPoint" />
          </mxGeometry>
        </mxCell>
        <mxCell id="ShmfW8HLHr1TqPuR5eqe-19" style="edgeStyle=orthogonalEdgeStyle;rounded=0;orthogonalLoop=1;jettySize=auto;html=1;exitX=0.5;exitY=0;exitDx=0;exitDy=0;endArrow=none;endFill=0;strokeWidth=2;" edge="1" parent="1" source="ShmfW8HLHr1TqPuR5eqe-21">
          <mxGeometry relative="1" as="geometry">
            <mxPoint x="299.8275862068965" y="190" as="targetPoint" />
          </mxGeometry>
        </mxCell>
        <mxCell id="ShmfW8HLHr1TqPuR5eqe-21" value="SVCs" style="shape=trapezoid;perimeter=trapezoidPerimeter;whiteSpace=wrap;html=1;fixedSize=1;fillColor=#1ba1e2;fontColor=#ffffff;strokeColor=#006EAF;" vertex="1" parent="1">
          <mxGeometry x="255" y="245" width="90" height="45" as="geometry" />
        </mxCell>
        <mxCell id="ShmfW8HLHr1TqPuR5eqe-22" value="" style="ellipse;whiteSpace=wrap;html=1;aspect=fixed;fillColor=#1ba1e2;fontColor=#ffffff;strokeColor=#006EAF;" vertex="1" parent="1">
          <mxGeometry x="610" y="110" width="30" height="30" as="geometry" />
        </mxCell>
        <mxCell id="ShmfW8HLHr1TqPuR5eqe-23" value="Deployed using a 5G Core Blueprint" style="text;html=1;align=center;verticalAlign=middle;whiteSpace=wrap;rounded=0;" vertex="1" parent="1">
          <mxGeometry x="650" y="112.5" width="140" height="25" as="geometry" />
        </mxCell>
        <mxCell id="ShmfW8HLHr1TqPuR5eqe-30" value="&lt;b&gt;&lt;font style=&quot;font-size: 14px;&quot;&gt;AREA EDGE&lt;/font&gt;&lt;/b&gt;" style="rounded=1;whiteSpace=wrap;html=1;labelPosition=center;verticalLabelPosition=top;align=center;verticalAlign=bottom;fillColor=#cdeb8b;strokeColor=#36393d;" vertex="1" parent="1">
          <mxGeometry x="30" y="601" width="560" height="240" as="geometry" />
        </mxCell>
        <mxCell id="ShmfW8HLHr1TqPuR5eqe-31" value="" style="verticalLabelPosition=bottom;shadow=0;dashed=0;align=center;html=1;verticalAlign=top;shape=mxgraph.electrical.radio.aerial_-_antenna_1;" vertex="1" parent="1">
          <mxGeometry x="120" y="315" width="10" height="20" as="geometry" />
        </mxCell>
        <mxCell id="ShmfW8HLHr1TqPuR5eqe-32" value="&lt;b style=&quot;font-size: 13px;&quot;&gt;&lt;font style=&quot;font-size: 13px;&quot;&gt;VM - ROUTER&lt;/font&gt;&lt;/b&gt;" style="rounded=1;whiteSpace=wrap;html=1;fillColor=#FF9933;fontColor=#ffffff;strokeColor=#FF8000;" vertex="1" parent="1">
          <mxGeometry x="250" y="385" width="120" height="60" as="geometry" />
        </mxCell>
        <mxCell id="ShmfW8HLHr1TqPuR5eqe-40" style="edgeStyle=orthogonalEdgeStyle;rounded=1;orthogonalLoop=1;jettySize=auto;html=1;exitX=0;exitY=0.25;exitDx=0;exitDy=0;entryX=1;entryY=0.75;entryDx=0;entryDy=0;endArrow=none;endFill=0;strokeWidth=2;fillColor=#e1d5e7;strokeColor=#9673a6;curved=0;" edge="1" parent="1" source="ShmfW8HLHr1TqPuR5eqe-33" target="ShmfW8HLHr1TqPuR5eqe-32">
          <mxGeometry relative="1" as="geometry">
            <Array as="points">
              <mxPoint x="380" y="350" />
              <mxPoint x="380" y="430" />
            </Array>
          </mxGeometry>
        </mxCell>
        <mxCell id="ShmfW8HLHr1TqPuR5eqe-43" style="edgeStyle=orthogonalEdgeStyle;rounded=1;orthogonalLoop=1;jettySize=auto;html=1;exitX=0;exitY=0.75;exitDx=0;exitDy=0;entryX=1;entryY=0.25;entryDx=0;entryDy=0;endArrow=none;endFill=0;strokeWidth=2;fillColor=#f8cecc;strokeColor=#b85450;curved=0;" edge="1" parent="1" source="ShmfW8HLHr1TqPuR5eqe-33" target="ShmfW8HLHr1TqPuR5eqe-32">
          <mxGeometry relative="1" as="geometry" />
        </mxCell>
        <mxCell id="ShmfW8HLHr1TqPuR5eqe-50" style="edgeStyle=orthogonalEdgeStyle;rounded=1;orthogonalLoop=1;jettySize=auto;html=1;exitX=1;exitY=0.5;exitDx=0;exitDy=0;entryX=0.75;entryY=1;entryDx=0;entryDy=0;fillColor=#f5f5f5;strokeColor=#666666;strokeWidth=2;endArrow=none;endFill=0;curved=0;" edge="1" parent="1" source="ShmfW8HLHr1TqPuR5eqe-33" target="ShmfW8HLHr1TqPuR5eqe-21">
          <mxGeometry relative="1" as="geometry">
            <Array as="points">
              <mxPoint x="575" y="365" />
              <mxPoint x="575" y="310" />
              <mxPoint x="323" y="310" />
            </Array>
          </mxGeometry>
        </mxCell>
        <mxCell id="ShmfW8HLHr1TqPuR5eqe-33" value="&lt;b style=&quot;font-size: 13px;&quot;&gt;&lt;font style=&quot;font-size: 13px;&quot;&gt;VM - UPF1&lt;/font&gt;&lt;/b&gt;" style="rounded=1;whiteSpace=wrap;html=1;fillColor=#1ba1e2;fontColor=#ffffff;strokeColor=#006EAF;" vertex="1" parent="1">
          <mxGeometry x="435" y="335" width="120" height="60" as="geometry" />
        </mxCell>
        <mxCell id="ShmfW8HLHr1TqPuR5eqe-41" style="edgeStyle=orthogonalEdgeStyle;rounded=1;orthogonalLoop=1;jettySize=auto;html=1;exitX=0;exitY=0.75;exitDx=0;exitDy=0;entryX=1;entryY=0.75;entryDx=0;entryDy=0;endArrow=none;endFill=0;strokeWidth=2;fillColor=#e1d5e7;strokeColor=#9673a6;curved=0;" edge="1" parent="1" source="ShmfW8HLHr1TqPuR5eqe-34" target="ShmfW8HLHr1TqPuR5eqe-32">
          <mxGeometry relative="1" as="geometry">
            <Array as="points">
              <mxPoint x="380" y="470" />
              <mxPoint x="380" y="430" />
            </Array>
          </mxGeometry>
        </mxCell>
        <mxCell id="ShmfW8HLHr1TqPuR5eqe-42" style="edgeStyle=orthogonalEdgeStyle;rounded=1;orthogonalLoop=1;jettySize=auto;html=1;exitX=0;exitY=0.25;exitDx=0;exitDy=0;entryX=1;entryY=0.25;entryDx=0;entryDy=0;endArrow=none;endFill=0;strokeWidth=2;fillColor=#f8cecc;strokeColor=#b85450;curved=0;" edge="1" parent="1" source="ShmfW8HLHr1TqPuR5eqe-34" target="ShmfW8HLHr1TqPuR5eqe-32">
          <mxGeometry relative="1" as="geometry" />
        </mxCell>
        <mxCell id="ShmfW8HLHr1TqPuR5eqe-51" style="edgeStyle=orthogonalEdgeStyle;rounded=1;orthogonalLoop=1;jettySize=auto;html=1;exitX=1;exitY=0.5;exitDx=0;exitDy=0;entryX=0.75;entryY=1;entryDx=0;entryDy=0;fillColor=#f5f5f5;strokeColor=#666666;strokeWidth=2;endArrow=none;endFill=0;curved=0;" edge="1" parent="1" source="ShmfW8HLHr1TqPuR5eqe-34" target="ShmfW8HLHr1TqPuR5eqe-21">
          <mxGeometry relative="1" as="geometry">
            <Array as="points">
              <mxPoint x="575" y="455" />
              <mxPoint x="575" y="310" />
              <mxPoint x="323" y="310" />
            </Array>
          </mxGeometry>
        </mxCell>
        <mxCell id="ShmfW8HLHr1TqPuR5eqe-34" value="&lt;b style=&quot;font-size: 13px;&quot;&gt;&lt;font style=&quot;font-size: 13px;&quot;&gt;VM - UPF2&lt;/font&gt;&lt;/b&gt;" style="rounded=1;whiteSpace=wrap;html=1;fillColor=#1ba1e2;fontColor=#ffffff;strokeColor=#006EAF;" vertex="1" parent="1">
          <mxGeometry x="435" y="425" width="120" height="60" as="geometry" />
        </mxCell>
        <mxCell id="ShmfW8HLHr1TqPuR5eqe-38" style="edgeStyle=orthogonalEdgeStyle;rounded=1;orthogonalLoop=1;jettySize=auto;html=1;exitX=1;exitY=0.5;exitDx=0;exitDy=0;entryX=0;entryY=0.5;entryDx=0;entryDy=0;endArrow=none;endFill=0;jumpSize=6;strokeWidth=2;fillColor=#ffe6cc;strokeColor=#d79b00;curved=0;" edge="1" parent="1" source="ShmfW8HLHr1TqPuR5eqe-35" target="ShmfW8HLHr1TqPuR5eqe-32">
          <mxGeometry relative="1" as="geometry" />
        </mxCell>
        <mxCell id="ShmfW8HLHr1TqPuR5eqe-48" style="edgeStyle=orthogonalEdgeStyle;rounded=1;orthogonalLoop=1;jettySize=auto;html=1;exitX=0;exitY=0.5;exitDx=0;exitDy=0;entryX=0.25;entryY=1;entryDx=0;entryDy=0;endArrow=none;endFill=0;strokeWidth=2;fillColor=#dae8fc;strokeColor=#6c8ebf;curved=0;" edge="1" parent="1" source="ShmfW8HLHr1TqPuR5eqe-35" target="ShmfW8HLHr1TqPuR5eqe-21">
          <mxGeometry relative="1" as="geometry">
            <Array as="points">
              <mxPoint x="45" y="365" />
              <mxPoint x="45" y="310" />
              <mxPoint x="278" y="310" />
              <mxPoint x="278" y="290" />
            </Array>
          </mxGeometry>
        </mxCell>
        <mxCell id="ShmfW8HLHr1TqPuR5eqe-35" value="&lt;b style=&quot;font-size: 13px;&quot;&gt;&lt;font style=&quot;font-size: 13px;&quot;&gt;gNB1&lt;/font&gt;&lt;/b&gt;" style="rounded=1;whiteSpace=wrap;html=1;fillColor=#FF9933;fontColor=#ffffff;strokeColor=#FF8000;gradientColor=none;glass=0;shadow=0;fillStyle=auto;gradientDirection=west;" vertex="1" parent="1">
          <mxGeometry x="65" y="335" width="120" height="60" as="geometry" />
        </mxCell>
        <mxCell id="ShmfW8HLHr1TqPuR5eqe-39" style="edgeStyle=orthogonalEdgeStyle;rounded=1;orthogonalLoop=1;jettySize=auto;html=1;exitX=1;exitY=0.5;exitDx=0;exitDy=0;entryX=0;entryY=0.5;entryDx=0;entryDy=0;endArrow=none;endFill=0;strokeWidth=2;fillColor=#ffe6cc;strokeColor=#d79b00;curved=0;" edge="1" parent="1" source="ShmfW8HLHr1TqPuR5eqe-36" target="ShmfW8HLHr1TqPuR5eqe-32">
          <mxGeometry relative="1" as="geometry" />
        </mxCell>
        <mxCell id="ShmfW8HLHr1TqPuR5eqe-49" style="edgeStyle=orthogonalEdgeStyle;rounded=1;orthogonalLoop=1;jettySize=auto;html=1;exitX=0;exitY=0.5;exitDx=0;exitDy=0;entryX=0.25;entryY=1;entryDx=0;entryDy=0;endArrow=none;endFill=0;strokeWidth=2;fillColor=#dae8fc;strokeColor=#6c8ebf;curved=0;" edge="1" parent="1" target="ShmfW8HLHr1TqPuR5eqe-21">
          <mxGeometry relative="1" as="geometry">
            <mxPoint x="65" y="455" as="sourcePoint" />
            <mxPoint x="300" y="290" as="targetPoint" />
            <Array as="points">
              <mxPoint x="45" y="455" />
              <mxPoint x="45" y="310" />
              <mxPoint x="278" y="310" />
              <mxPoint x="278" y="290" />
            </Array>
          </mxGeometry>
        </mxCell>
        <mxCell id="ShmfW8HLHr1TqPuR5eqe-36" value="&lt;b style=&quot;font-size: 13px;&quot;&gt;&lt;font style=&quot;font-size: 13px;&quot;&gt;gNB2&lt;/font&gt;&lt;/b&gt;" style="rounded=1;whiteSpace=wrap;html=1;fillColor=#FF9933;fontColor=#ffffff;strokeColor=#FF8000;gradientColor=none;glass=0;shadow=0;fillStyle=auto;gradientDirection=west;" vertex="1" parent="1">
          <mxGeometry x="65" y="425" width="120" height="60" as="geometry" />
        </mxCell>
        <mxCell id="ShmfW8HLHr1TqPuR5eqe-37" value="" style="verticalLabelPosition=bottom;shadow=0;dashed=0;align=center;html=1;verticalAlign=top;shape=mxgraph.electrical.radio.aerial_-_antenna_1;" vertex="1" parent="1">
          <mxGeometry x="120" y="405" width="10" height="20" as="geometry" />
        </mxCell>
        <mxCell id="ShmfW8HLHr1TqPuR5eqe-45" style="edgeStyle=orthogonalEdgeStyle;rounded=0;orthogonalLoop=1;jettySize=auto;html=1;exitX=0.5;exitY=1;exitDx=0;exitDy=0;entryX=0.5;entryY=0.188;entryDx=0;entryDy=0;entryPerimeter=0;strokeWidth=2;endArrow=none;endFill=0;" edge="1" parent="1" source="ShmfW8HLHr1TqPuR5eqe-32" target="ShmfW8HLHr1TqPuR5eqe-44">
          <mxGeometry relative="1" as="geometry" />
        </mxCell>
        <mxCell id="ShmfW8HLHr1TqPuR5eqe-44" value="Data&lt;div&gt;Network&lt;/div&gt;" style="ellipse;shape=cloud;whiteSpace=wrap;html=1;fillColor=#6a00ff;fontColor=#ffffff;strokeColor=#3700CC;" vertex="1" parent="1">
          <mxGeometry x="250" y="485" width="120" height="80" as="geometry" />
        </mxCell>
        <mxCell id="ShmfW8HLHr1TqPuR5eqe-53" value="" style="endArrow=none;dashed=1;html=1;rounded=0;entryX=0.25;entryY=1;entryDx=0;entryDy=0;exitX=0.5;exitY=1;exitDx=0;exitDy=0;strokeWidth=2;fillColor=#dae8fc;strokeColor=#6c8ebf;" edge="1" parent="1" source="ShmfW8HLHr1TqPuR5eqe-13" target="ShmfW8HLHr1TqPuR5eqe-21">
          <mxGeometry width="50" height="50" relative="1" as="geometry">
            <mxPoint x="240" y="290" as="sourcePoint" />
            <mxPoint x="290" y="240" as="targetPoint" />
          </mxGeometry>
        </mxCell>
        <mxCell id="ShmfW8HLHr1TqPuR5eqe-54" value="" style="endArrow=none;dashed=1;html=1;rounded=0;entryX=0.5;entryY=1;entryDx=0;entryDy=0;exitX=0.75;exitY=1;exitDx=0;exitDy=0;strokeWidth=2;fillColor=#f5f5f5;strokeColor=#666666;" edge="1" parent="1" source="ShmfW8HLHr1TqPuR5eqe-21" target="ShmfW8HLHr1TqPuR5eqe-15">
          <mxGeometry width="50" height="50" relative="1" as="geometry">
            <mxPoint x="240" y="290" as="sourcePoint" />
            <mxPoint x="290" y="240" as="targetPoint" />
          </mxGeometry>
        </mxCell>
        <mxCell id="ShmfW8HLHr1TqPuR5eqe-55" value="" style="verticalLabelPosition=bottom;shadow=0;dashed=0;align=center;html=1;verticalAlign=top;shape=mxgraph.electrical.radio.aerial_-_antenna_1;" vertex="1" parent="1">
          <mxGeometry x="119.97" y="631" width="10" height="20" as="geometry" />
        </mxCell>
        <mxCell id="ShmfW8HLHr1TqPuR5eqe-59" style="edgeStyle=orthogonalEdgeStyle;rounded=1;orthogonalLoop=1;jettySize=auto;html=1;exitX=1;exitY=0.5;exitDx=0;exitDy=0;fillColor=#f5f5f5;strokeColor=#666666;strokeWidth=2;endArrow=none;endFill=0;entryX=0.75;entryY=1;entryDx=0;entryDy=0;curved=0;" edge="1" parent="1" source="ShmfW8HLHr1TqPuR5eqe-60" target="ShmfW8HLHr1TqPuR5eqe-21">
          <mxGeometry relative="1" as="geometry">
            <mxPoint x="575" y="440" as="targetPoint" />
            <Array as="points">
              <mxPoint x="575" y="681" />
              <mxPoint x="575" y="310" />
              <mxPoint x="323" y="310" />
            </Array>
          </mxGeometry>
        </mxCell>
        <mxCell id="ShmfW8HLHr1TqPuR5eqe-60" value="&lt;b style=&quot;font-size: 13px;&quot;&gt;&lt;font style=&quot;font-size: 13px;&quot;&gt;VM - UPF3&lt;/font&gt;&lt;/b&gt;" style="rounded=1;whiteSpace=wrap;html=1;fillColor=#1ba1e2;fontColor=#ffffff;strokeColor=#006EAF;" vertex="1" parent="1">
          <mxGeometry x="434.97" y="651" width="120" height="60" as="geometry" />
        </mxCell>
        <mxCell id="ShmfW8HLHr1TqPuR5eqe-63" style="edgeStyle=orthogonalEdgeStyle;rounded=1;orthogonalLoop=1;jettySize=auto;html=1;exitX=1;exitY=0.5;exitDx=0;exitDy=0;fillColor=#f5f5f5;strokeColor=#666666;strokeWidth=2;endArrow=none;endFill=0;entryX=0.75;entryY=1;entryDx=0;entryDy=0;curved=0;" edge="1" parent="1" source="ShmfW8HLHr1TqPuR5eqe-64" target="ShmfW8HLHr1TqPuR5eqe-21">
          <mxGeometry relative="1" as="geometry">
            <mxPoint x="575" y="450" as="targetPoint" />
            <Array as="points">
              <mxPoint x="575" y="771" />
              <mxPoint x="575" y="310" />
              <mxPoint x="323" y="310" />
            </Array>
          </mxGeometry>
        </mxCell>
        <mxCell id="ShmfW8HLHr1TqPuR5eqe-64" value="&lt;b style=&quot;font-size: 13px;&quot;&gt;&lt;font style=&quot;font-size: 13px;&quot;&gt;VM - UPF4&lt;/font&gt;&lt;/b&gt;" style="rounded=1;whiteSpace=wrap;html=1;fillColor=#1ba1e2;fontColor=#ffffff;strokeColor=#006EAF;" vertex="1" parent="1">
          <mxGeometry x="434.97" y="741" width="120" height="60" as="geometry" />
        </mxCell>
        <mxCell id="ShmfW8HLHr1TqPuR5eqe-66" style="edgeStyle=orthogonalEdgeStyle;rounded=1;orthogonalLoop=1;jettySize=auto;html=1;exitX=0;exitY=0.5;exitDx=0;exitDy=0;endArrow=none;endFill=0;strokeWidth=2;fillColor=#dae8fc;strokeColor=#6c8ebf;entryX=0.25;entryY=1;entryDx=0;entryDy=0;curved=0;" edge="1" parent="1" source="ShmfW8HLHr1TqPuR5eqe-67" target="ShmfW8HLHr1TqPuR5eqe-21">
          <mxGeometry relative="1" as="geometry">
            <mxPoint x="45" y="450" as="targetPoint" />
            <Array as="points">
              <mxPoint x="45" y="681" />
              <mxPoint x="45" y="310" />
              <mxPoint x="277" y="310" />
            </Array>
          </mxGeometry>
        </mxCell>
        <mxCell id="ShmfW8HLHr1TqPuR5eqe-67" value="&lt;b style=&quot;font-size: 13px;&quot;&gt;&lt;font style=&quot;font-size: 13px;&quot;&gt;gNB3&lt;/font&gt;&lt;/b&gt;" style="rounded=1;whiteSpace=wrap;html=1;fillColor=#FF9933;fontColor=#ffffff;strokeColor=#FF8000;gradientColor=none;glass=0;shadow=0;fillStyle=auto;gradientDirection=west;" vertex="1" parent="1">
          <mxGeometry x="64.97" y="651" width="120" height="60" as="geometry" />
        </mxCell>
        <mxCell id="ShmfW8HLHr1TqPuR5eqe-69" style="edgeStyle=orthogonalEdgeStyle;rounded=1;orthogonalLoop=1;jettySize=auto;html=1;exitX=0;exitY=0.5;exitDx=0;exitDy=0;endArrow=none;endFill=0;strokeWidth=2;fillColor=#dae8fc;strokeColor=#6c8ebf;entryX=0.25;entryY=1;entryDx=0;entryDy=0;curved=0;" edge="1" parent="1" source="ShmfW8HLHr1TqPuR5eqe-70" target="ShmfW8HLHr1TqPuR5eqe-21">
          <mxGeometry relative="1" as="geometry">
            <mxPoint x="64.97" y="880" as="sourcePoint" />
            <mxPoint x="45" y="440" as="targetPoint" />
            <Array as="points">
              <mxPoint x="45" y="770" />
              <mxPoint x="45" y="310" />
              <mxPoint x="277" y="310" />
            </Array>
          </mxGeometry>
        </mxCell>
        <mxCell id="ShmfW8HLHr1TqPuR5eqe-70" value="&lt;b style=&quot;font-size: 13px;&quot;&gt;&lt;font style=&quot;font-size: 13px;&quot;&gt;gNB4&lt;/font&gt;&lt;/b&gt;" style="rounded=1;whiteSpace=wrap;html=1;fillColor=#FF9933;fontColor=#ffffff;strokeColor=#FF8000;gradientColor=none;glass=0;shadow=0;fillStyle=auto;gradientDirection=west;" vertex="1" parent="1">
          <mxGeometry x="64.97" y="741" width="120" height="60" as="geometry" />
        </mxCell>
        <mxCell id="ShmfW8HLHr1TqPuR5eqe-71" value="" style="verticalLabelPosition=bottom;shadow=0;dashed=0;align=center;html=1;verticalAlign=top;shape=mxgraph.electrical.radio.aerial_-_antenna_1;" vertex="1" parent="1">
          <mxGeometry x="119.97" y="721" width="10" height="20" as="geometry" />
        </mxCell>
        <mxCell id="ShmfW8HLHr1TqPuR5eqe-74" value="" style="ellipse;whiteSpace=wrap;html=1;aspect=fixed;fillColor=#ff9933;fontColor=#ffffff;strokeColor=#ff8000;" vertex="1" parent="1">
          <mxGeometry x="610" y="165" width="30" height="30" as="geometry" />
        </mxCell>
        <mxCell id="ShmfW8HLHr1TqPuR5eqe-75" value="Can be deployed by a Blueprint but can also be a PDU" style="text;html=1;align=center;verticalAlign=middle;whiteSpace=wrap;rounded=0;" vertex="1" parent="1">
          <mxGeometry x="640" y="157.5" width="160" height="45" as="geometry" />
        </mxCell>
        <mxCell id="ShmfW8HLHr1TqPuR5eqe-76" value="gnb-net" style="text;html=1;align=center;verticalAlign=middle;whiteSpace=wrap;rounded=0;fontColor=#d79b00;fontStyle=1" vertex="1" parent="1">
          <mxGeometry x="160" y="395" width="60" height="30" as="geometry" />
        </mxCell>
        <mxCell id="ShmfW8HLHr1TqPuR5eqe-77" value="n3-net" style="text;html=1;align=center;verticalAlign=middle;whiteSpace=wrap;rounded=0;fontColor=#b85450;fontStyle=1" vertex="1" parent="1">
          <mxGeometry x="395" y="390" width="60" height="30" as="geometry" />
        </mxCell>
        <mxCell id="ShmfW8HLHr1TqPuR5eqe-78" value="n6-net" style="text;html=1;align=center;verticalAlign=middle;whiteSpace=wrap;rounded=0;fontColor=#9673a6;fontStyle=1" vertex="1" parent="1">
          <mxGeometry x="375" y="350" width="60" height="30" as="geometry" />
        </mxCell>
        <mxCell id="ShmfW8HLHr1TqPuR5eqe-79" value="wan-net" style="text;html=1;align=center;verticalAlign=middle;whiteSpace=wrap;rounded=0;fontColor=#6c8ebf;fontStyle=1" vertex="1" parent="1">
          <mxGeometry x="270" y="305" width="60" height="30" as="geometry" />
        </mxCell>
        <mxCell id="ShmfW8HLHr1TqPuR5eqe-84" value="&lt;b style=&quot;font-size: 13px;&quot;&gt;&lt;font style=&quot;font-size: 13px;&quot;&gt;VM - ROUTER&lt;/font&gt;&lt;/b&gt;" style="rounded=1;whiteSpace=wrap;html=1;fillColor=#FF9933;fontColor=#ffffff;strokeColor=#FF8000;" vertex="1" parent="1">
          <mxGeometry x="250" y="700" width="120" height="60" as="geometry" />
        </mxCell>
        <mxCell id="ShmfW8HLHr1TqPuR5eqe-85" style="edgeStyle=orthogonalEdgeStyle;rounded=1;orthogonalLoop=1;jettySize=auto;html=1;exitX=0;exitY=0.25;exitDx=0;exitDy=0;entryX=1;entryY=0.75;entryDx=0;entryDy=0;endArrow=none;endFill=0;strokeWidth=2;fillColor=#e1d5e7;strokeColor=#9673a6;curved=0;" edge="1" parent="1" target="ShmfW8HLHr1TqPuR5eqe-84">
          <mxGeometry relative="1" as="geometry">
            <mxPoint x="435" y="665" as="sourcePoint" />
            <Array as="points">
              <mxPoint x="380" y="665" />
              <mxPoint x="380" y="745" />
            </Array>
          </mxGeometry>
        </mxCell>
        <mxCell id="ShmfW8HLHr1TqPuR5eqe-86" style="edgeStyle=orthogonalEdgeStyle;rounded=1;orthogonalLoop=1;jettySize=auto;html=1;exitX=0;exitY=0.75;exitDx=0;exitDy=0;entryX=1;entryY=0.25;entryDx=0;entryDy=0;endArrow=none;endFill=0;strokeWidth=2;fillColor=#f8cecc;strokeColor=#b85450;curved=0;" edge="1" parent="1" target="ShmfW8HLHr1TqPuR5eqe-84">
          <mxGeometry relative="1" as="geometry">
            <mxPoint x="435" y="695" as="sourcePoint" />
          </mxGeometry>
        </mxCell>
        <mxCell id="ShmfW8HLHr1TqPuR5eqe-87" style="edgeStyle=orthogonalEdgeStyle;rounded=1;orthogonalLoop=1;jettySize=auto;html=1;exitX=0;exitY=0.75;exitDx=0;exitDy=0;entryX=1;entryY=0.75;entryDx=0;entryDy=0;endArrow=none;endFill=0;strokeWidth=2;fillColor=#e1d5e7;strokeColor=#9673a6;curved=0;" edge="1" parent="1" target="ShmfW8HLHr1TqPuR5eqe-84">
          <mxGeometry relative="1" as="geometry">
            <mxPoint x="435" y="785" as="sourcePoint" />
            <Array as="points">
              <mxPoint x="380" y="785" />
              <mxPoint x="380" y="745" />
            </Array>
          </mxGeometry>
        </mxCell>
        <mxCell id="ShmfW8HLHr1TqPuR5eqe-88" style="edgeStyle=orthogonalEdgeStyle;rounded=1;orthogonalLoop=1;jettySize=auto;html=1;exitX=0;exitY=0.25;exitDx=0;exitDy=0;entryX=1;entryY=0.25;entryDx=0;entryDy=0;endArrow=none;endFill=0;strokeWidth=2;fillColor=#f8cecc;strokeColor=#b85450;curved=0;" edge="1" parent="1" target="ShmfW8HLHr1TqPuR5eqe-84">
          <mxGeometry relative="1" as="geometry">
            <mxPoint x="435" y="755" as="sourcePoint" />
          </mxGeometry>
        </mxCell>
        <mxCell id="ShmfW8HLHr1TqPuR5eqe-89" style="edgeStyle=orthogonalEdgeStyle;rounded=1;orthogonalLoop=1;jettySize=auto;html=1;exitX=1;exitY=0.5;exitDx=0;exitDy=0;entryX=0;entryY=0.5;entryDx=0;entryDy=0;endArrow=none;endFill=0;jumpSize=6;strokeWidth=2;fillColor=#ffe6cc;strokeColor=#d79b00;curved=0;" edge="1" parent="1" target="ShmfW8HLHr1TqPuR5eqe-84">
          <mxGeometry relative="1" as="geometry">
            <mxPoint x="185" y="680" as="sourcePoint" />
          </mxGeometry>
        </mxCell>
        <mxCell id="ShmfW8HLHr1TqPuR5eqe-90" style="edgeStyle=orthogonalEdgeStyle;rounded=1;orthogonalLoop=1;jettySize=auto;html=1;exitX=1;exitY=0.5;exitDx=0;exitDy=0;entryX=0;entryY=0.5;entryDx=0;entryDy=0;endArrow=none;endFill=0;strokeWidth=2;fillColor=#ffe6cc;strokeColor=#d79b00;curved=0;" edge="1" parent="1" target="ShmfW8HLHr1TqPuR5eqe-84">
          <mxGeometry relative="1" as="geometry">
            <mxPoint x="185" y="770" as="sourcePoint" />
          </mxGeometry>
        </mxCell>
        <mxCell id="ShmfW8HLHr1TqPuR5eqe-91" style="edgeStyle=orthogonalEdgeStyle;rounded=0;orthogonalLoop=1;jettySize=auto;html=1;exitX=0.5;exitY=1;exitDx=0;exitDy=0;entryX=0.5;entryY=0.188;entryDx=0;entryDy=0;entryPerimeter=0;strokeWidth=2;endArrow=none;endFill=0;" edge="1" parent="1" source="ShmfW8HLHr1TqPuR5eqe-84">
          <mxGeometry relative="1" as="geometry">
            <mxPoint x="310" y="815" as="targetPoint" />
          </mxGeometry>
        </mxCell>
        <mxCell id="ShmfW8HLHr1TqPuR5eqe-92" value="gnb-net-2" style="text;html=1;align=center;verticalAlign=middle;whiteSpace=wrap;rounded=0;fontColor=#d79b00;fontStyle=1" vertex="1" parent="1">
          <mxGeometry x="155" y="710" width="60" height="30" as="geometry" />
        </mxCell>
        <mxCell id="ShmfW8HLHr1TqPuR5eqe-93" value="n3-net-2" style="text;html=1;align=center;verticalAlign=middle;whiteSpace=wrap;rounded=0;fontColor=#b85450;fontStyle=1" vertex="1" parent="1">
          <mxGeometry x="400" y="706" width="60" height="30" as="geometry" />
        </mxCell>
        <mxCell id="ShmfW8HLHr1TqPuR5eqe-94" value="n6-net-2" style="text;html=1;align=center;verticalAlign=middle;whiteSpace=wrap;rounded=0;fontColor=#9673a6;fontStyle=1" vertex="1" parent="1">
          <mxGeometry x="377" y="665" width="60" height="30" as="geometry" />
        </mxCell>
        <mxCell id="ShmfW8HLHr1TqPuR5eqe-73" value="Data&lt;div&gt;Network&lt;/div&gt;" style="ellipse;shape=cloud;whiteSpace=wrap;html=1;fillColor=#6a00ff;fontColor=#ffffff;strokeColor=#3700CC;" vertex="1" parent="1">
          <mxGeometry x="249.97" y="801" width="120" height="80" as="geometry" />
        </mxCell>
      </root>
    </mxGraphModel>
  </diagram>
</mxfile>
